<svg xmlns="http://www.w3.org/2000/svg" width="17.779" height="17.015" viewBox="0 0 17.779 17.015">
  <g id="bookmark-star" transform="translate(0.51 -0.549)">
    <path id="Path_632" data-name="Path 632" d="M7.8,1.411a.649.649,0,0,1,1.163,0l2.086,4.228a.649.649,0,0,0,.489.355l4.666.678a.649.649,0,0,1,.359,1.106l-3.376,3.291a.649.649,0,0,0-.187.574l.8,4.648a.649.649,0,0,1-.942.684L8.681,14.78a.648.648,0,0,0-.6,0L3.9,16.975a.649.649,0,0,1-.941-.684l.8-4.648a.648.648,0,0,0-.187-.574L.2,7.778a.649.649,0,0,1,.36-1.106l4.667-.678a.649.649,0,0,0,.488-.355Z" transform="translate(0)" fill="#ffe2a8" stroke="#ffcb63" stroke-width="1"/>
  </g>
</svg>
