<svg xmlns="http://www.w3.org/2000/svg" width="74.791" height="97" viewBox="0 0 74.791 97">
  <g id="choice" transform="translate(-58.614)" opacity="0.116">
    <path id="Path_66" data-name="Path 66" d="M307.316,0H289.76a7.434,7.434,0,0,0-7.425,7.425V24.981a7.434,7.434,0,0,0,7.425,7.425h17.556a7.434,7.434,0,0,0,7.425-7.425V7.425A7.433,7.433,0,0,0,307.316,0Zm1.742,24.981a1.744,1.744,0,0,1-1.742,1.742H289.76a1.744,1.744,0,0,1-1.742-1.742V7.425a1.744,1.744,0,0,1,1.742-1.742h17.556a1.744,1.744,0,0,1,1.742,1.742Z" transform="translate(-181.336)" fill="#00d0e2"/>
    <path id="Path_67" data-name="Path 67" d="M112.381,39.5a8.052,8.052,0,0,0-3.778.936,8.1,8.1,0,0,0-10.738-2.562,8.1,8.1,0,0,0-8.947-2.939v-2.53h.675a7.434,7.434,0,0,0,7.425-7.425V7.425A7.434,7.434,0,0,0,89.592,0H72.037a7.434,7.434,0,0,0-7.425,7.425V24.981a7.434,7.434,0,0,0,7.425,7.425h.675v17.6a8.154,8.154,0,0,0-1.475-1.17,8.044,8.044,0,0,0-5.8-1.075,6.922,6.922,0,0,0-6.613,8.743l3.735,15.983C64.689,85.826,75.091,95.8,75.534,96.222A2.842,2.842,0,0,0,77.488,97h31.963a2.842,2.842,0,0,0,2.375-1.281,52.506,52.506,0,0,0,8.656-28.914l0-19.2h0A8.113,8.113,0,0,0,112.381,39.5Zm-33.7,51.816c-2.29-2.436-9.04-10.3-10.525-19.81q-.016-.1-.041-.208L64.358,55.215a1.522,1.522,0,0,1,.178-1.3,1.663,1.663,0,0,1,1.2-.513c.276-.026.391-.059.647-.075a3.106,3.106,0,0,1,1.855.345,2.4,2.4,0,0,1,1.079,1.5l3.241,13.873a2.842,2.842,0,0,0,2.414,2.173l.228.028a2.842,2.842,0,0,0,3.195-2.82V23.263a2.419,2.419,0,0,1,4.839,0V49.912a2.842,2.842,0,1,0,5.684,0V42.67a2.419,2.419,0,0,1,4.838,0v7.566a2.842,2.842,0,0,0,5.684,0V44.924a2.419,2.419,0,1,1,4.838,0v7.3a2.842,2.842,0,0,0,5.684,0V47.6a2.419,2.419,0,0,1,4.839,0l0,19.2a46.827,46.827,0,0,1-6.908,24.512H78.681ZM70.3,24.981V7.425a1.744,1.744,0,0,1,1.742-1.742H89.592a1.744,1.744,0,0,1,1.742,1.742V24.981a1.744,1.744,0,0,1-1.742,1.742h-.675V23.263a8.1,8.1,0,0,0-16.206,0v3.459h-.675A1.744,1.744,0,0,1,70.3,24.981Z" fill="#00d0e2"/>
  </g>
</svg>
