<svg xmlns="http://www.w3.org/2000/svg" width="97.004" height="97.11" viewBox="0 0 97.004 97.11">
  <g id="confetti-2" transform="translate(-0.279 0)" opacity="0.106">
    <path id="Path_47" data-name="Path 47" d="M306.358,287.607H295.29a3.167,3.167,0,0,1,0-6.334h11.069a3.167,3.167,0,1,1,0,6.334Z" transform="translate(-236.491 -227.925)" fill="#86517a"/>
    <path id="Path_48" data-name="Path 48" d="M200.836,145.869a3.167,3.167,0,0,1-3.167-3.167V131.634a3.167,3.167,0,0,1,6.334,0V142.7A3.167,3.167,0,0,1,200.836,145.869Z" transform="translate(-159.951 -104.101)" fill="#86517a"/>
    <path id="Path_49" data-name="Path 49" d="M171.8,2.787a9.5,9.5,0,1,0,0,13.428A9.48,9.48,0,0,0,171.8,2.787Zm-4.466,8.936a3.141,3.141,0,0,1-4.482.013,3.2,3.2,0,0,1,0-4.472,3.161,3.161,0,0,1,4.482,4.459Z" transform="translate(-125.863)" fill="#86517a"/>
    <circle id="Ellipse_14" data-name="Ellipse 14" cx="3.167" cy="3.167" r="3.167" transform="translate(78.026 35.435)" fill="#86517a"/>
    <circle id="Ellipse_15" data-name="Ellipse 15" cx="3.167" cy="3.167" r="3.167" transform="translate(55.632 13.041)" fill="#86517a"/>
    <circle id="Ellipse_16" data-name="Ellipse 16" cx="3.167" cy="3.167" r="3.167" transform="translate(78.026 71.263)" fill="#86517a"/>
    <circle id="Ellipse_17" data-name="Ellipse 17" cx="3.167" cy="3.167" r="3.167" transform="translate(19.804 13.041)" fill="#86517a"/>
    <path id="Path_50" data-name="Path 50" d="M430.055,11.469A3.167,3.167,0,0,1,426.888,8.3V5.135a3.167,3.167,0,1,1,6.334,0V8.3A3.166,3.166,0,0,1,430.055,11.469Z" transform="translate(-345.695 -1.595)" fill="#86517a"/>
    <path id="Path_51" data-name="Path 51" d="M430.055,94.954a3.167,3.167,0,0,1-3.167-3.167V88.62a3.167,3.167,0,0,1,6.334,0v3.167A3.166,3.166,0,0,1,430.055,94.954Z" transform="translate(-345.695 -69.245)" fill="#86517a"/>
    <path id="Path_52" data-name="Path 52" d="M383.131,58.393h-3.167a3.167,3.167,0,1,1,0-6.334h3.167a3.167,3.167,0,1,1,0,6.334Z" transform="translate(-305.105 -42.185)" fill="#86517a"/>
    <g id="Group_5" data-name="Group 5" transform="translate(78.298 9.874)">
      <path id="Path_53" data-name="Path 53" d="M466.616,58.393h-3.167a3.167,3.167,0,1,1,0-6.334h3.167a3.167,3.167,0,0,1,0,6.334Z" transform="translate(-451.053 -52.059)" fill="#86517a"/>
      <path id="Path_54" data-name="Path 54" d="M427.821,247.677a9.5,9.5,0,1,0,0,13.428A9.48,9.48,0,0,0,427.821,247.677Zm-4.466,8.935a3.139,3.139,0,0,1-4.482.014,3.2,3.2,0,0,1,0-4.472,3.161,3.161,0,0,1,4.482,4.458Z" transform="translate(-411.623 -208.316)" fill="#86517a"/>
    </g>
    <path id="Path_55" data-name="Path 55" d="M254.982,149a3.167,3.167,0,0,1-2.239-5.406l19.769-19.769a3.167,3.167,0,0,1,4.478,4.478l-19.769,19.769A3.157,3.157,0,0,1,254.982,149Z" transform="translate(-203.828 -99.59)" fill="#86517a"/>
    <path id="Path_56" data-name="Path 56" d="M256.706,152.039a3.165,3.165,0,0,0,4.478,0l19.769-19.769a3.166,3.166,0,0,0,0-4.478l-24.247,24.248Z" transform="translate(-207.791 -103.553)" fill="#86517a"/>
    <path id="Path_57" data-name="Path 57" d="M24.868,390.742v8.941L4.5,406.853a3.167,3.167,0,0,1-4.039-4.041l7.178-20.34h8.962l4.123,4.128Z" transform="translate(0 -309.929)" fill="#86517a"/>
    <path id="Path_58" data-name="Path 58" d="M28.885,408.376v8.941l-20.363,7.17a3.126,3.126,0,0,1-3.285-.741l19.51-19.512Z" transform="translate(-4.018 -327.564)" fill="#86517a"/>
    <path id="Path_59" data-name="Path 59" d="M82.274,211.949l21.019,21.027h11.139l11.862-4.18a3.192,3.192,0,0,0,1.942-4.054l-37.77-37.749a3.145,3.145,0,0,0-4.033,1.921L82.274,200.7v11.251h0Z" transform="translate(-66.443 -151.376)" fill="#86517a"/>
    <path id="Path_60" data-name="Path 60" d="M148.137,314.411h11.139l11.862-4.18a3.193,3.193,0,0,0,1.942-4.054L154.2,287.3l-16.581,16.581Z" transform="translate(-111.288 -232.811)" fill="#86517a"/>
    <path id="Path_61" data-name="Path 61" d="M47.256,260.25l-8.17,23.182,17.228,17.207.063-.021,23.1-8.149Z" transform="translate(-31.447 -210.889)" fill="#86517a"/>
    <path id="Path_62" data-name="Path 62" d="M93.117,369.488l.063-.021,23.1-8.149-16.1-16.1L84.5,360.886Z" transform="translate(-68.25 -279.739)" fill="#86517a"/>
    <path id="Path_63" data-name="Path 63" d="M127.559,214.33a3.157,3.157,0,0,1-2.239-.928L80.532,168.616a3.167,3.167,0,1,1,4.478-4.478L129.8,208.924a3.167,3.167,0,0,1-2.239,5.406Z" transform="translate(-64.28 -132.254)" fill="#86517a"/>
    <path id="Path_64" data-name="Path 64" d="M224.956,313.039a3.167,3.167,0,1,0,4.478-4.478l-22.393-22.393-4.478,4.478Z" transform="translate(-163.917 -231.891)" fill="#86517a"/>
  </g>
</svg>
