<svg xmlns="http://www.w3.org/2000/svg" width="16.081" height="16" viewBox="0 0 16.081 16">
  <g id="edit" transform="translate(0 -0.261)">
    <path id="Path_630" data-name="Path 630" d="M14.842,47.654a.4.4,0,0,0-.4.4v3.556a1.2,1.2,0,0,1-1.2,1.2H2a1.2,1.2,0,0,1-1.2-1.2V41.174a1.2,1.2,0,0,1,1.2-1.2H5.558a.4.4,0,1,0,0-.8H2a2,2,0,0,0-2,2V51.611a2,2,0,0,0,2,2H13.24a2,2,0,0,0,2-2V48.055A.4.4,0,0,0,14.842,47.654Zm0,0" transform="translate(0 -37.353)" fill="#c2c2c2"/>
    <path id="Path_631" data-name="Path 631" d="M118.941.789a1.8,1.8,0,0,0-2.549,0l-7.145,7.145a.4.4,0,0,0-.1.176L108.2,11.5A.4.4,0,0,0,108.7,12l3.392-.94a.4.4,0,0,0,.176-.1l7.145-7.145a1.8,1.8,0,0,0,0-2.549Zm-8.821,7.405,5.848-5.848,1.886,1.886-5.848,5.848Zm-.377.756,1.507,1.507-2.084.577Zm9.1-5.709-.425.425L116.533,1.78l.425-.425a1,1,0,0,1,1.416,0l.47.47A1,1,0,0,1,118.844,3.241Zm0,0" transform="translate(-103.857)" fill="#c2c2c2"/>
  </g>
</svg>
