<svg xmlns="http://www.w3.org/2000/svg" width="26.119" height="26.101" viewBox="0 0 26.119 26.101">
  <g id="mainTbarSearch" transform="translate(-1.099 3.793)">
    <path id="Path_12" data-name="Path 12" d="M16.949,6.167V6.9a5.606,5.606,0,0,1-5.228,5.138h-.457A5.462,5.462,0,0,1,5.94,6.9V5.986a5.542,5.542,0,0,1,5.047-4.957h.824A5.623,5.623,0,0,1,16.949,6.167ZM11.354,15.8a9.009,9.009,0,0,0,2.627-.4c.552-.181,2-.864,2.235-.884,1.642,1.1,6.042,6.79,7.8,6.79h2.2c0-3.561.236-2.943-2.591-5.665-.477-.462-4.289-4-4.289-4.244,0-.638,1.286-2.069,1.286-5.138C20.62-1.763,10.5-5.681,4.86.04-.79,5.775,3.208,15.8,11.354,15.8Z" transform="translate(0 0)" fill="#00d0e2" stroke="#fff" stroke-width="2" fill-rule="evenodd"/>
  </g>
</svg>
