<svg xmlns="http://www.w3.org/2000/svg" width="100" height="97.363" viewBox="0 0 100 97.363">
  <g id="meeting" transform="translate(0 -6.75)" opacity="0.117">
    <circle id="Ellipse_18" data-name="Ellipse 18" cx="9.766" cy="9.766" r="9.766" transform="translate(0.684 6.75)" fill="#80c3ed"/>
    <rect id="Rectangle_12" data-name="Rectangle 12" width="7.324" height="21.875" transform="translate(23.633 82.238)" fill="#80c3ed"/>
    <circle id="Ellipse_19" data-name="Ellipse 19" cx="9.766" cy="9.766" r="9.766" transform="translate(79.785 6.75)" fill="#80c3ed"/>
    <path id="Path_65" data-name="Path 65" d="M100,147A10.266,10.266,0,0,0,89.746,136.75H79.785v16.406h8.3v5.859H11.914v-5.859h8.3V136.75H10.254A10.266,10.266,0,0,0,0,147v23.73a10.254,10.254,0,0,0,10.254,10.254H36.816v27.734h7.324V180.988a10.254,10.254,0,0,0-10.254-10.254H20.215v-5.859h59.57v5.859H66.113a10.254,10.254,0,0,0-10.254,10.254v27.734h7.324V180.988H89.746A10.254,10.254,0,0,0,100,170.734Z" transform="translate(0 -104.609)" fill="#80c3ed"/>
    <rect id="Rectangle_13" data-name="Rectangle 13" width="7.324" height="21.875" transform="translate(69.043 82.238)" fill="#80c3ed"/>
    <rect id="Rectangle_14" data-name="Rectangle 14" width="7.324" height="16.406" transform="translate(39.746 32.141)" fill="#80c3ed"/>
    <rect id="Rectangle_15" data-name="Rectangle 15" width="7.324" height="16.406" transform="translate(52.929 32.141)" fill="#80c3ed"/>
    <circle id="Ellipse_20" data-name="Ellipse 20" cx="9.766" cy="9.766" r="9.766" transform="translate(40.234 6.75)" fill="#80c3ed"/>
  </g>
</svg>
