<svg xmlns="http://www.w3.org/2000/svg" width="164" height="164" viewBox="0 0 164 164">
  <g id="Group_12" data-name="Group 12" transform="translate(-558 -1046)">
    <g id="Ellipse_23" data-name="Ellipse 23" transform="translate(558 1046)" fill="#fff" stroke="#00d0e2" stroke-width="2" stroke-dasharray="8">
      <circle cx="82" cy="82" r="82" stroke="none"/>
      <circle cx="82" cy="82" r="81" fill="none"/>
    </g>
    <g id="calendar-2" transform="translate(596 1083.891)">
      <path id="Path_644" data-name="Path 644" d="M309.8,134.109v15.168h-6.16c-.79-.077-1.617-.116-2.426-.116q-1.242,0-2.425.116H291.8V134.109Zm0,0" transform="translate(-235.632 -108.206)" fill="#dce7f9"/>
      <path id="Path_645" data-name="Path 645" d="M18,56.428H0V41.317A3.4,3.4,0,0,1,3.407,37.91h6.43v8.373H21.694V37.91H52.434v8.373H64.312V37.91h6.429a3.4,3.4,0,0,1,3.407,3.407V56.409H37.074Zm0,0" transform="translate(0 -30.524)" fill="#99ccfb"/>
      <path id="Path_646" data-name="Path 646" d="M284.358,7.386v8.393H272.5V.109h11.858Zm0,0" transform="translate(-220.046)" fill="#5264bd"/>
      <path id="Path_647" data-name="Path 647" d="M211.756,214.561a24.54,24.54,0,0,0-13.32,13.417H192.7V212.809h19.076v1.752Zm0,0" transform="translate(-155.606 -171.756)" fill="#dce7f9"/>
      <path id="Path_648" data-name="Path 648" d="M192.7,134.109h19.076v15.168H192.7Zm0,0" transform="translate(-155.606 -108.206)" fill="#deeffe"/>
      <path id="Path_649" data-name="Path 649" d="M198.436,291.609a24.681,24.681,0,0,0-.712,16.554H192.7V291.629h5.736Zm0,0" transform="translate(-155.606 -235.389)" fill="#d4e1f4"/>
      <path id="Path_650" data-name="Path 650" d="M93.5,291.609h19.076v16.535H93.5Zm0,0" transform="translate(-75.502 -235.389)" fill="#dce7f9"/>
      <path id="Path_651" data-name="Path 651" d="M93.5,212.809h19.076v15.168H93.5Zm0,0" transform="translate(-75.502 -171.756)" fill="#deeffe"/>
      <path id="Path_652" data-name="Path 652" d="M93.5,134.109h19.076v15.168H93.5Zm0,0" transform="translate(-75.502 -108.206)" fill="#dce7f9"/>
      <path id="Path_653" data-name="Path 653" d="M63.057,7.386v8.393H51.2V.109H63.057Zm0,0" transform="translate(-41.344)" fill="#5264bd"/>
      <path id="Path_654" data-name="Path 654" d="M18,291.609v16.535H3.407A3.4,3.4,0,0,1,0,304.737V291.609Zm0,0" transform="translate(0 -235.389)" fill="#deeffe"/>
      <path id="Path_655" data-name="Path 655" d="M0,212.809H18v15.168H0Zm0,0" transform="translate(0 -171.756)" fill="#dce7f9"/>
      <path id="Path_656" data-name="Path 656" d="M0,134.109H18v15.168H0Zm0,0" transform="translate(0 -108.206)" fill="#deeffe"/>
      <path id="Path_657" data-name="Path 657" d="M236.248,204.155A24.554,24.554,0,1,1,203.1,227.138a24.265,24.265,0,0,1,1.809-9.258,24.666,24.666,0,0,1,13.32-13.417,24.98,24.98,0,0,1,6.988-1.751h4.851A26.276,26.276,0,0,1,236.248,204.155Zm0,0" transform="translate(-164.006 -163.602)" fill="#13d0e2"/>
      <path id="Path_658" data-name="Path 658" d="M298.139,296.208l-7.892,7.892-3.831-3.869a1.919,1.919,0,1,0-2.733,2.695l5.2,5.236a1.953,1.953,0,0,0,2.733,0l9.259-9.259a1.916,1.916,0,0,0,0-2.714A1.94,1.94,0,0,0,298.139,296.208Zm0,0" transform="translate(-228.63 -238.64)" fill="#f7e592"/>
    </g>
  </g>
</svg>
