<svg xmlns="http://www.w3.org/2000/svg" width="164" height="164" viewBox="0 0 164 164">
  <g id="Group_13" data-name="Group 13" transform="translate(-901 -1046)">
    <g id="Ellipse_24" data-name="Ellipse 24" transform="translate(901 1046)" fill="#fff" stroke="#00d0e2" stroke-width="2" stroke-dasharray="8">
      <circle cx="82" cy="82" r="82" stroke="none"/>
      <circle cx="82" cy="82" r="81" fill="none"/>
    </g>
    <g id="map" transform="translate(942 1084)">
      <path id="Path_659" data-name="Path 659" d="M314.774,217.877l8.8,40.2-19.118-6.95-.137.039L299.1,211.238l.078-.039Zm0,0" transform="translate(-240.869 -170.081)" fill="#52a3f8"/>
      <path id="Path_660" data-name="Path 660" d="M159.542,4.731a16.621,16.621,0,0,1,0,22.74L148.619,38.879,137.7,27.471a16.621,16.621,0,0,1,0-22.74,14.973,14.973,0,0,1,21.844,0ZM155.1,13.959a6.483,6.483,0,1,0-6.483,6.483A6.483,6.483,0,0,0,155.1,13.959Zm0,0" transform="translate(-107.267)" fill="#13d0e2"/>
      <path id="Path_661" data-name="Path 661" d="M211.917,257.093v-38.88L228.8,211.4l5.217,39.931-22.1,6.191-.116-.039Zm0,0" transform="translate(-170.565 -170.241)" fill="#99ccfb"/>
      <path id="Path_662" data-name="Path 662" d="M120.433,216.926v38.88l-.116.389L98.2,249.556l5.276-39.756Zm0,0" transform="translate(-79.081 -168.955)" fill="#52a3f8"/>
      <path id="Path_663" data-name="Path 663" d="M24.395,209.8l-5.276,39.756L0,256.682l8.8-40.2Zm0,0" transform="translate(0 -168.955)" fill="#99ccfb"/>
    </g>
  </g>
</svg>
